{"glyphs":{"0":{"ha":595,"x_min":0,"x_max":496,"o":"m 297 198 l 297 893 l 198 893 l 198 198 l 297 198 m 0 0 l 0 1091 l 496 1091 l 496 0 l 0 0 z "},"1":{"ha":397,"x_min":0,"x_max":297,"o":"m 99 0 l 99 893 l 0 893 l 0 1091 l 297 1091 l 297 0 l 99 0 z "},"2":{"ha":595,"x_min":0,"x_max":496,"o":"m 0 0 l 0 595 l 297 595 l 297 893 l 0 893 l 0 1091 l 496 1091 l 496 397 l 198 397 l 198 198 l 496 198 l 496 0 l 0 0 z "},"3":{"ha":595,"x_min":0,"x_max":496,"o":"m 0 0 l 0 198 l 297 198 l 297 397 l 0 397 l 0 595 l 297 595 l 297 893 l 0 893 l 0 1091 l 496 1091 l 496 0 l 0 0 z "},"4":{"ha":595,"x_min":0,"x_max":496,"o":"m 297 0 l 297 397 l 0 397 l 0 1091 l 198 1091 l 198 595 l 297 595 l 297 1091 l 496 1091 l 496 0 l 297 0 z "},"5":{"ha":595,"x_min":0,"x_max":496,"o":"m 0 0 l 0 198 l 297 198 l 297 496 l 0 496 l 0 1091 l 496 1091 l 496 893 l 198 893 l 198 694 l 496 694 l 496 0 l 0 0 z "},"6":{"ha":595,"x_min":0,"x_max":496,"o":"m 297 198 l 297 496 l 198 496 l 198 198 l 297 198 m 0 0 l 0 1091 l 496 1091 l 496 893 l 198 893 l 198 694 l 496 694 l 496 0 l 0 0 z "},"7":{"ha":595,"x_min":0,"x_max":496,"o":"m 297 0 l 297 893 l 0 893 l 0 1091 l 496 1091 l 496 0 l 297 0 z "},"8":{"ha":595,"x_min":0,"x_max":496,"o":"m 297 198 l 297 496 l 198 496 l 198 198 l 297 198 m 297 694 l 297 893 l 198 893 l 198 694 l 297 694 m 0 0 l 0 1091 l 496 1091 l 496 0 l 0 0 z "},"9":{"ha":595,"x_min":0,"x_max":496,"o":"m 297 496 l 297 893 l 198 893 l 198 496 l 297 496 m 0 0 l 0 198 l 297 198 l 297 297 l 0 297 l 0 1091 l 496 1091 l 496 0 l 0 0 z "}," ":{"ha":248,"x_min":0,"x_max":0,"o":""},"!":{"ha":297,"x_min":0,"x_max":198,"o":"m 0 0 l 0 198 l 198 198 l 198 0 l 0 0 m 0 297 l 0 1091 l 198 1091 l 198 297 l 0 297 z "},"\"":{"ha":595,"x_min":0,"x_max":496,"o":"m 0 793 l 0 1091 l 198 1091 l 198 793 l 0 793 m 297 793 l 297 1091 l 496 1091 l 496 793 l 297 793 z "},"#":{"ha":793,"x_min":0,"x_max":694,"o":"m 397 397 l 397 595 l 297 595 l 297 397 l 397 397 m 99 0 l 99 198 l 0 198 l 0 397 l 99 397 l 99 595 l 0 595 l 0 793 l 99 793 l 99 1091 l 297 1091 l 297 793 l 397 793 l 397 1091 l 595 1091 l 595 793 l 694 793 l 694 595 l 595 595 l 595 397 l 694 397 l 694 198 l 595 198 l 595 0 l 397 0 l 397 198 l 297 198 l 297 0 l 99 0 z "},"$":{"ha":595,"x_min":0,"x_max":496,"o":"m 149 -99 l 149 0 l 0 0 l 0 198 l 297 198 l 297 496 l 0 496 l 0 1091 l 149 1091 l 149 1190 l 347 1190 l 347 1091 l 496 1091 l 496 893 l 198 893 l 198 694 l 496 694 l 496 0 l 347 0 l 347 -99 l 149 -99 z "},"%":{"ha":1341,"x_min":0,"x_max":1242,"o":"m 297 793 l 297 892 l 198 892 l 198 793 l 297 793 m 99 594 l 0 693 l 0 991 l 99 1090 l 397 1090 l 496 991 l 496 693 l 397 594 l 99 594 m 1044 200 l 1044 299 l 945 299 l 945 200 l 1044 200 m 845 2 l 746 101 l 746 399 l 845 498 l 1143 498 l 1242 399 l 1242 101 l 1143 2 l 845 2 m 237 0 l 746 1091 l 1012 1091 l 504 0 l 237 0 z "},"&":{"ha":595,"x_min":0,"x_max":496,"o":"m 149 -99 l 149 0 l 0 0 l 0 1091 l 149 1091 l 149 1190 l 347 1190 l 347 1091 l 496 1091 l 496 893 l 198 893 l 198 694 l 397 694 l 397 496 l 198 496 l 198 198 l 496 198 l 496 0 l 347 0 l 347 -99 l 149 -99 z "},"'":{"ha":297,"x_min":0,"x_max":198,"o":"m 0 793 l 0 1091 l 198 1091 l 198 793 l 0 793 z "},"(":{"ha":397,"x_min":0,"x_max":297,"o":"m 99 -99 l 0 0 l 0 1091 l 99 1190 l 297 1190 l 297 992 l 198 992 l 198 99 l 297 99 l 297 -99 l 99 -99 z "},")":{"ha":397,"x_min":0,"x_max":297,"o":"m 0 -99 l 0 99 l 99 99 l 99 992 l 0 992 l 0 1190 l 198 1190 l 297 1091 l 297 0 l 198 -99 l 0 -99 z "},"+":{"ha":595,"x_min":0,"x_max":496,"o":"m 149 99 l 149 297 l 0 297 l 0 496 l 149 496 l 149 694 l 347 694 l 347 496 l 496 496 l 496 297 l 347 297 l 347 99 l 149 99 z "},",":{"ha":297,"x_min":0,"x_max":198,"o":"m 0 -99 l 0 198 l 198 198 l 198 -99 l 0 -99 z "},"-":{"ha":595,"x_min":0,"x_max":496,"o":"m 0 297 l 0 496 l 496 496 l 496 297 l 0 297 z "},".":{"ha":297,"x_min":0,"x_max":198,"o":"m 0 0 l 0 198 l 198 198 l 198 0 l 0 0 z "},":":{"ha":297,"x_min":0,"x_max":198,"o":"m 0 0 l 0 198 l 198 198 l 198 0 l 0 0 m 0 694 l 0 893 l 198 893 l 198 694 l 0 694 z "},";":{"ha":297,"x_min":0,"x_max":198,"o":"m 0 -99 l 0 198 l 198 198 l 198 -99 l 0 -99 m 0 694 l 0 893 l 198 893 l 198 694 l 0 694 z "},"=":{"ha":595,"x_min":0,"x_max":496,"o":"m 0 198 l 0 397 l 496 397 l 496 198 l 0 198 m 0 496 l 0 694 l 496 694 l 496 496 l 0 496 z "},"?":{"ha":595,"x_min":0,"x_max":496,"o":"m 99 0 l 99 198 l 297 198 l 297 0 l 99 0 m 99 297 l 99 595 l 297 595 l 297 893 l 198 893 l 198 793 l 0 793 l 0 1091 l 496 1091 l 496 397 l 297 397 l 297 297 l 99 297 z "},"@":{"ha":1190,"x_min":0,"x_max":1091,"o":"m 595 297 l 595 397 l 496 397 l 496 297 l 595 297 m 99 -198 l 0 -99 l 0 1091 l 99 1190 l 992 1190 l 1091 1091 l 1091 198 l 992 99 l 297 99 l 297 595 l 595 595 l 595 694 l 297 694 l 297 893 l 793 893 l 793 297 l 893 297 l 893 992 l 198 992 l 198 0 l 893 0 l 893 -198 l 99 -198 z "},"A":{"ha":595,"x_min":0,"x_max":496,"o":"m 297 595 l 297 893 l 198 893 l 198 595 l 297 595 m 0 0 l 0 1091 l 496 1091 l 496 0 l 297 0 l 297 397 l 198 397 l 198 0 l 0 0 z "},"B":{"ha":595,"x_min":0,"x_max":496,"o":"m 297 198 l 297 496 l 198 496 l 198 198 l 297 198 m 297 694 l 297 893 l 198 893 l 198 694 l 297 694 m 0 0 l 0 1091 l 496 1091 l 496 694 l 397 595 l 496 496 l 496 0 l 0 0 z "},"C":{"ha":595,"x_min":0,"x_max":496,"o":"m 0 0 l 0 1091 l 496 1091 l 496 694 l 297 694 l 297 893 l 198 893 l 198 198 l 297 198 l 297 397 l 496 397 l 496 0 l 0 0 z "},"D":{"ha":595,"x_min":0,"x_max":496,"o":"m 297 198 l 297 893 l 198 893 l 198 198 l 297 198 m 0 0 l 0 1091 l 397 1091 l 496 992 l 496 99 l 397 0 l 0 0 z "},"E":{"ha":496,"x_min":0,"x_max":397,"o":"m 0 0 l 0 1091 l 397 1091 l 397 893 l 198 893 l 198 694 l 397 694 l 397 496 l 198 496 l 198 198 l 397 198 l 397 0 l 0 0 z "},"F":{"ha":496,"x_min":0,"x_max":397,"o":"m 0 0 l 0 1091 l 397 1091 l 397 893 l 198 893 l 198 694 l 397 694 l 397 496 l 198 496 l 198 0 l 0 0 z "},"G":{"ha":595,"x_min":0,"x_max":496,"o":"m 0 0 l 0 1091 l 496 1091 l 496 793 l 297 793 l 297 893 l 198 893 l 198 198 l 297 198 l 297 496 l 248 496 l 248 694 l 496 694 l 496 0 l 0 0 z "},"H":{"ha":595,"x_min":0,"x_max":496,"o":"m 0 0 l 0 1091 l 198 1091 l 198 694 l 297 694 l 297 1091 l 496 1091 l 496 0 l 297 0 l 297 496 l 198 496 l 198 0 l 0 0 z "},"I":{"ha":297,"x_min":0,"x_max":198,"o":"m 0 0 l 0 1091 l 198 1091 l 198 0 l 0 0 z "},"J":{"ha":595,"x_min":0,"x_max":496,"o":"m 0 0 l 0 397 l 198 397 l 198 198 l 297 198 l 297 1091 l 496 1091 l 496 0 l 0 0 z "},"K":{"ha":595,"x_min":0,"x_max":496,"o":"m 0 0 l 0 1091 l 198 1091 l 198 595 l 297 595 l 297 1091 l 496 1091 l 496 595 l 397 496 l 496 397 l 496 0 l 297 0 l 297 397 l 198 397 l 198 0 l 0 0 z "},"L":{"ha":496,"x_min":0,"x_max":397,"o":"m 0 0 l 0 1091 l 198 1091 l 198 198 l 397 198 l 397 0 l 0 0 z "},"M":{"ha":893,"x_min":0,"x_max":793,"o":"m 0 0 l 0 1091 l 793 1091 l 793 0 l 595 0 l 595 893 l 496 893 l 496 0 l 297 0 l 297 893 l 198 893 l 198 0 l 0 0 z "},"N":{"ha":595,"x_min":0,"x_max":496,"o":"m 0 0 l 0 1091 l 496 1091 l 496 0 l 297 0 l 297 893 l 198 893 l 198 0 l 0 0 z "},"O":{"ha":595,"x_min":0,"x_max":496,"o":"m 297 198 l 297 893 l 198 893 l 198 198 l 297 198 m 0 0 l 0 1091 l 496 1091 l 496 0 l 0 0 z "},"P":{"ha":595,"x_min":0,"x_max":496,"o":"m 297 595 l 297 893 l 198 893 l 198 595 l 297 595 m 0 0 l 0 1091 l 496 1091 l 496 397 l 198 397 l 198 0 l 0 0 z "},"Q":{"ha":595,"x_min":0,"x_max":496,"o":"m 297 198 l 297 893 l 198 893 l 198 198 l 297 198 m 198 -198 l 198 0 l 0 0 l 0 1091 l 496 1091 l 496 0 l 397 0 l 397 -198 l 198 -198 z "},"R":{"ha":595,"x_min":0,"x_max":496,"o":"m 297 595 l 297 893 l 198 893 l 198 595 l 297 595 m 0 0 l 0 1091 l 496 1091 l 496 595 l 397 496 l 496 397 l 496 0 l 297 0 l 297 397 l 198 397 l 198 0 l 0 0 z "},"S":{"ha":595,"x_min":0,"x_max":496,"o":"m 0 0 l 0 297 l 198 297 l 198 198 l 297 198 l 297 496 l 0 496 l 0 1091 l 496 1091 l 496 793 l 297 793 l 297 893 l 198 893 l 198 694 l 496 694 l 496 0 l 0 0 z "},"T":{"ha":694,"x_min":0,"x_max":595,"o":"m 198 0 l 198 893 l 0 893 l 0 1091 l 595 1091 l 595 893 l 397 893 l 397 0 l 198 0 z "},"U":{"ha":595,"x_min":0,"x_max":496,"o":"m 0 0 l 0 1091 l 198 1091 l 198 198 l 297 198 l 297 1091 l 496 1091 l 496 0 l 0 0 z "},"V":{"ha":595,"x_min":0,"x_max":496,"o":"m 198 0 l 0 198 l 0 1091 l 198 1091 l 198 297 l 297 297 l 297 1091 l 496 1091 l 496 198 l 297 0 l 198 0 z "},"W":{"ha":893,"x_min":0,"x_max":793,"o":"m 0 0 l 0 1091 l 198 1091 l 198 198 l 297 198 l 297 992 l 496 992 l 496 198 l 595 198 l 595 1091 l 793 1091 l 793 0 l 0 0 z "},"X":{"ha":595,"x_min":0,"x_max":496,"o":"m 0 0 l 0 496 l 99 595 l 0 694 l 0 1091 l 198 1091 l 198 694 l 297 694 l 297 1091 l 496 1091 l 496 694 l 397 595 l 496 496 l 496 0 l 297 0 l 297 496 l 198 496 l 198 0 l 0 0 z "},"Y":{"ha":595,"x_min":0,"x_max":496,"o":"m 149 0 l 149 496 l 0 496 l 0 1091 l 198 1091 l 198 694 l 297 694 l 297 1091 l 496 1091 l 496 496 l 347 496 l 347 0 l 149 0 z "},"Z":{"ha":595,"x_min":0,"x_max":496,"o":"m 0 0 l 0 694 l 297 694 l 297 893 l 0 893 l 0 1091 l 496 1091 l 496 496 l 198 496 l 198 198 l 496 198 l 496 0 l 0 0 z "},"[":{"ha":397,"x_min":0,"x_max":297,"o":"m 0 -99 l 0 1190 l 297 1190 l 297 992 l 198 992 l 198 99 l 297 99 l 297 -99 l 0 -99 z "},"]":{"ha":397,"x_min":0,"x_max":297,"o":"m 0 -99 l 0 99 l 99 99 l 99 992 l 0 992 l 0 1190 l 297 1190 l 297 -99 l 0 -99 z "},"_":{"ha":595,"x_min":0,"x_max":496,"o":"m 0 0 l 0 198 l 496 198 l 496 0 l 0 0 z "},"a":{"ha":595,"x_min":0,"x_max":496,"o":"m 297 198 l 297 397 l 198 397 l 198 198 l 297 198 m 0 0 l 0 595 l 297 595 l 297 694 l 0 694 l 0 893 l 496 893 l 496 0 l 0 0 z "},"b":{"ha":595,"x_min":0,"x_max":496,"o":"m 297 198 l 297 694 l 198 694 l 198 198 l 297 198 m 0 0 l 0 1091 l 198 1091 l 198 893 l 496 893 l 496 0 l 0 0 z "},"c":{"ha":595,"x_min":0,"x_max":496,"o":"m 0 0 l 0 893 l 496 893 l 496 595 l 297 595 l 297 694 l 198 694 l 198 198 l 297 198 l 297 297 l 496 297 l 496 0 l 0 0 z "},"d":{"ha":595,"x_min":0,"x_max":496,"o":"m 297 198 l 297 694 l 198 694 l 198 198 l 297 198 m 0 0 l 0 893 l 297 893 l 297 1091 l 496 1091 l 496 0 l 0 0 z "},"e":{"ha":595,"x_min":0,"x_max":496,"o":"m 297 496 l 297 694 l 198 694 l 198 496 l 297 496 m 0 0 l 0 893 l 496 893 l 496 297 l 198 297 l 198 198 l 496 198 l 496 0 l 0 0 z "},"f":{"ha":595,"x_min":0,"x_max":496,"o":"m 99 0 l 99 496 l 0 496 l 0 694 l 99 694 l 99 1091 l 496 1091 l 496 893 l 297 893 l 297 694 l 496 694 l 496 496 l 297 496 l 297 0 l 99 0 z "},"g":{"ha":595,"x_min":0,"x_max":496,"o":"m 297 198 l 297 694 l 198 694 l 198 198 l 297 198 m 0 -297 l 0 -99 l 297 -99 l 297 0 l 0 0 l 0 893 l 496 893 l 496 -297 l 0 -297 z "},"h":{"ha":595,"x_min":0,"x_max":496,"o":"m 0 0 l 0 1091 l 198 1091 l 198 893 l 496 893 l 496 0 l 297 0 l 297 694 l 198 694 l 198 0 l 0 0 z "},"i":{"ha":297,"x_min":0,"x_max":198,"o":"m 0 0 l 0 893 l 198 893 l 198 0 l 0 0 m 0 992 l 0 1091 l 198 1091 l 198 992 l 0 992 z "},"j":{"ha":297,"x_min":0,"x_max":198,"o":"m 0 -198 l 0 893 l 198 893 l 198 -198 l 0 -198 m 0 992 l 0 1091 l 198 1091 l 198 992 l 0 992 z "},"k":{"ha":595,"x_min":0,"x_max":496,"o":"m 0 0 l 0 1091 l 198 1091 l 198 595 l 297 595 l 297 893 l 496 893 l 496 595 l 397 496 l 496 397 l 496 0 l 297 0 l 297 397 l 198 397 l 198 0 l 0 0 z "},"l":{"ha":297,"x_min":0,"x_max":198,"o":"m 0 0 l 0 1091 l 198 1091 l 198 0 l 0 0 z "},"m":{"ha":893,"x_min":0,"x_max":793,"o":"m 0 0 l 0 893 l 793 893 l 793 0 l 595 0 l 595 694 l 496 694 l 496 0 l 297 0 l 297 694 l 198 694 l 198 0 l 0 0 z "},"n":{"ha":595,"x_min":0,"x_max":496,"o":"m 0 0 l 0 893 l 496 893 l 496 0 l 297 0 l 297 694 l 198 694 l 198 0 l 0 0 z "},"o":{"ha":595,"x_min":0,"x_max":496,"o":"m 297 198 l 297 694 l 198 694 l 198 198 l 297 198 m 0 0 l 0 893 l 496 893 l 496 0 l 0 0 z "},"p":{"ha":595,"x_min":0,"x_max":496,"o":"m 297 198 l 297 694 l 198 694 l 198 198 l 297 198 m 0 -198 l 0 893 l 496 893 l 496 0 l 198 0 l 198 -198 l 0 -198 z "},"q":{"ha":595,"x_min":0,"x_max":496,"o":"m 297 198 l 297 694 l 198 694 l 198 198 l 297 198 m 297 -198 l 297 0 l 0 0 l 0 893 l 496 893 l 496 -198 l 297 -198 z "},"r":{"ha":595,"x_min":0,"x_max":496,"o":"m 0 0 l 0 893 l 496 893 l 496 595 l 297 595 l 297 694 l 198 694 l 198 0 l 0 0 z "},"s":{"ha":595,"x_min":0,"x_max":496,"o":"m 0 0 l 0 198 l 297 198 l 297 397 l 0 397 l 0 893 l 496 893 l 496 694 l 198 694 l 198 595 l 496 595 l 496 0 l 0 0 z "},"t":{"ha":595,"x_min":0,"x_max":496,"o":"m 149 0 l 149 694 l 0 694 l 0 893 l 149 893 l 149 1091 l 347 1091 l 347 893 l 496 893 l 496 694 l 347 694 l 347 0 l 149 0 z "},"u":{"ha":595,"x_min":0,"x_max":496,"o":"m 0 0 l 0 893 l 198 893 l 198 198 l 297 198 l 297 893 l 496 893 l 496 0 l 0 0 z "},"v":{"ha":595,"x_min":0,"x_max":496,"o":"m 198 0 l 0 198 l 0 893 l 198 893 l 198 297 l 297 297 l 297 893 l 496 893 l 496 198 l 297 0 l 198 0 z "},"w":{"ha":893,"x_min":0,"x_max":793,"o":"m 0 0 l 0 893 l 198 893 l 198 198 l 297 198 l 297 793 l 496 793 l 496 198 l 595 198 l 595 893 l 793 893 l 793 0 l 0 0 z "},"x":{"ha":595,"x_min":0,"x_max":496,"o":"m 0 0 l 0 397 l 99 496 l 0 595 l 0 893 l 198 893 l 198 595 l 297 595 l 297 893 l 496 893 l 496 595 l 397 496 l 496 397 l 496 0 l 297 0 l 297 397 l 198 397 l 198 0 l 0 0 z "},"y":{"ha":595,"x_min":0,"x_max":496,"o":"m 0 -297 l 0 -99 l 297 -99 l 297 0 l 0 0 l 0 893 l 198 893 l 198 198 l 297 198 l 297 893 l 496 893 l 496 -297 l 0 -297 z "},"z":{"ha":595,"x_min":0,"x_max":496,"o":"m 0 0 l 0 496 l 297 496 l 297 694 l 0 694 l 0 893 l 496 893 l 496 297 l 198 297 l 198 198 l 496 198 l 496 0 l 0 0 z "},"{":{"ha":496,"x_min":0,"x_max":397,"o":"m 99 -99 l 99 496 l 0 496 l 0 694 l 99 694 l 99 1190 l 397 1190 l 397 992 l 297 992 l 297 694 l 198 595 l 297 496 l 297 99 l 397 99 l 397 -99 l 99 -99 z "},"|":{"ha":297,"x_min":0,"x_max":198,"o":"m 0 -99 l 0 1190 l 198 1190 l 198 -99 l 0 -99 z "},"}":{"ha":496,"x_min":0,"x_max":397,"o":"m 0 -99 l 0 99 l 99 99 l 99 496 l 198 595 l 99 694 l 99 992 l 0 992 l 0 1190 l 297 1190 l 297 694 l 397 694 l 397 496 l 297 496 l 297 -99 l 0 -99 z "},"~":{"ha":802,"x_min":0,"x_max":703,"o":"m 0 428 l 77 611 l 207 664 l 481 549 l 520 641 l 703 564 l 626 380 l 495 328 l 221 443 l 183 351 l 0 428 z "},"¡":{"ha":297,"x_min":0,"x_max":198,"o":"m 0 -198 l 0 595 l 198 595 l 198 -198 l 0 -198 m 0 694 l 0 893 l 198 893 l 198 694 l 0 694 z "},"¢":{"ha":595,"x_min":0,"x_max":496,"o":"m 149 -99 l 149 0 l 0 0 l 0 893 l 149 893 l 149 992 l 347 992 l 347 893 l 496 893 l 496 595 l 297 595 l 297 694 l 198 694 l 198 198 l 297 198 l 297 297 l 496 297 l 496 0 l 347 0 l 347 -99 l 149 -99 z "},"£":{"ha":694,"x_min":0,"x_max":595,"o":"m 99 0 l 99 397 l 0 397 l 0 595 l 99 595 l 99 1091 l 595 1091 l 595 793 l 397 793 l 397 893 l 297 893 l 297 595 l 496 595 l 496 397 l 297 397 l 297 198 l 595 198 l 595 0 l 99 0 z "},"¤":{"ha":595,"x_min":0,"x_max":496,"o":"m 297 397 l 297 595 l 198 595 l 198 397 l 297 397 m 0 198 l 0 793 l 496 793 l 496 198 l 0 198 z "},"¥":{"ha":694,"x_min":0,"x_max":595,"o":"m 198 0 l 198 99 l 99 99 l 99 297 l 198 297 l 198 397 l 99 397 l 99 595 l 198 595 l 198 694 l 0 694 l 0 1091 l 198 1091 l 198 893 l 397 893 l 397 1091 l 595 1091 l 595 694 l 397 694 l 397 595 l 496 595 l 496 397 l 397 397 l 397 297 l 496 297 l 496 99 l 397 99 l 397 0 l 198 0 z "},"¦":{"ha":297,"x_min":0,"x_max":198,"o":"m 0 -99 l 0 496 l 198 496 l 198 -99 l 0 -99 m 0 595 l 0 1190 l 198 1190 l 198 595 l 0 595 z "},"§":{"ha":595,"x_min":0,"x_max":496,"o":"m 297 496 l 297 595 l 198 595 l 198 496 l 297 496 m 0 0 l 0 198 l 297 198 l 297 297 l 0 297 l 0 1091 l 496 1091 l 496 893 l 198 893 l 198 793 l 496 793 l 496 0 l 0 0 z "},"¨":{"ha":595,"x_min":0,"x_max":496,"o":"m 0 893 l 0 1091 l 198 1091 l 198 893 l 0 893 m 297 893 l 297 1091 l 496 1091 l 496 893 l 297 893 z "},"©":{"ha":992,"x_min":0,"x_max":893,"o":"m 297 297 l 297 793 l 595 793 l 595 595 l 496 595 l 496 496 l 595 496 l 595 297 l 297 297 m 694 198 l 694 893 l 198 893 l 198 198 l 694 198 m 0 0 l 0 1091 l 893 1091 l 893 0 l 0 0 z "},"ª":{"ha":595,"x_min":0,"x_max":496,"o":"m 297 496 l 297 595 l 198 595 l 198 496 l 297 496 m 0 297 l 0 793 l 297 793 l 297 893 l 0 893 l 0 1091 l 496 1091 l 496 297 l 0 297 z "},"¬":{"ha":595,"x_min":0,"x_max":496,"o":"m 297 297 l 297 397 l 0 397 l 0 595 l 496 595 l 496 297 l 297 297 z "},"­":{"ha":595,"x_min":0,"x_max":496,"o":"m 0 397 l 0 595 l 496 595 l 496 397 l 0 397 z "},"®":{"ha":992,"x_min":0,"x_max":893,"o":"m 297 297 l 297 793 l 595 793 l 595 595 l 496 595 l 496 297 l 297 297 m 694 198 l 694 893 l 198 893 l 198 198 l 694 198 m 0 0 l 0 1091 l 893 1091 l 893 0 l 0 0 z "},"¯":{"ha":595,"x_min":0,"x_max":496,"o":"m 0 893 l 0 1091 l 496 1091 l 496 893 l 0 893 z "},"°":{"ha":595,"x_min":0,"x_max":496,"o":"m 297 793 l 297 893 l 198 893 l 198 793 l 297 793 m 0 595 l 0 1091 l 496 1091 l 496 595 l 0 595 z "},"²":{"ha":595,"x_min":0,"x_max":496,"o":"m 0 297 l 0 793 l 297 793 l 297 893 l 0 893 l 0 1091 l 496 1091 l 496 595 l 198 595 l 198 496 l 496 496 l 496 297 l 0 297 z "},"³":{"ha":595,"x_min":0,"x_max":496,"o":"m 0 297 l 0 496 l 297 496 l 297 595 l 0 595 l 0 793 l 297 793 l 297 893 l 0 893 l 0 1091 l 496 1091 l 496 297 l 0 297 z "},"µ":{"ha":595,"x_min":0,"x_max":496,"o":"m 0 -198 l 0 893 l 198 893 l 198 198 l 297 198 l 297 893 l 496 893 l 496 0 l 198 0 l 198 -198 l 0 -198 z "},"¶":{"ha":694,"x_min":0,"x_max":595,"o":"m 99 0 l 99 595 l 0 595 l 0 1091 l 595 1091 l 595 0 l 397 0 l 397 893 l 297 893 l 297 0 l 99 0 z "},"·":{"ha":297,"x_min":0,"x_max":198,"o":"m 0 297 l 0 496 l 198 496 l 198 297 l 0 297 z "},"¸":{"ha":397,"x_min":0,"x_max":297,"o":"m 0 -297 l 0 -99 l 99 -99 l 99 0 l 297 0 l 297 -198 l 198 -297 l 0 -297 z "},"¹":{"ha":397,"x_min":0,"x_max":297,"o":"m 99 297 l 99 893 l 0 893 l 0 1091 l 297 1091 l 297 297 l 99 297 z "},"º":{"ha":595,"x_min":0,"x_max":496,"o":"m 297 496 l 297 893 l 198 893 l 198 496 l 297 496 m 0 297 l 0 1091 l 496 1091 l 496 297 l 0 297 z "},"¿":{"ha":595,"x_min":0,"x_max":496,"o":"m 0 -198 l 0 496 l 198 496 l 198 595 l 397 595 l 397 297 l 198 297 l 198 0 l 297 0 l 297 99 l 496 99 l 496 -198 l 0 -198 m 198 694 l 198 893 l 397 893 l 397 694 l 198 694 z "},"Æ":{"ha":893,"x_min":0,"x_max":793,"o":"m 297 595 l 297 893 l 198 893 l 198 595 l 297 595 m 0 0 l 0 1091 l 793 1091 l 793 893 l 496 893 l 496 595 l 793 595 l 793 397 l 496 397 l 496 198 l 793 198 l 793 0 l 297 0 l 297 397 l 198 397 l 198 0 l 0 0 z "},"Þ":{"ha":595,"x_min":0,"x_max":496,"o":"m 297 397 l 297 694 l 198 694 l 198 397 l 297 397 m 0 0 l 0 1091 l 198 1091 l 198 893 l 496 893 l 496 198 l 198 198 l 198 0 l 0 0 z "},"ß":{"ha":694,"x_min":0,"x_max":595,"o":"m 0 0 l 0 1091 l 595 1091 l 595 694 l 496 595 l 595 496 l 595 0 l 297 0 l 297 198 l 397 198 l 397 496 l 297 496 l 297 694 l 397 694 l 397 893 l 198 893 l 198 0 l 0 0 z "},"æ":{"ha":893,"x_min":0,"x_max":793,"o":"m 297 198 l 297 397 l 198 397 l 198 198 l 297 198 m 595 496 l 595 694 l 496 694 l 496 496 l 595 496 m 0 0 l 0 595 l 297 595 l 297 694 l 0 694 l 0 893 l 793 893 l 793 297 l 496 297 l 496 198 l 793 198 l 793 0 l 0 0 z "},"ð":{"ha":694,"x_min":0,"x_max":595,"o":"m 297 198 l 297 496 l 198 496 l 198 198 l 297 198 m 0 0 l 0 694 l 297 694 l 297 793 l 198 793 l 198 992 l 297 992 l 297 1091 l 496 1091 l 496 992 l 595 992 l 595 793 l 496 793 l 496 0 l 0 0 z "},"÷":{"ha":595,"x_min":0,"x_max":496,"o":"m 149 50 l 149 248 l 347 248 l 347 50 l 149 50 m 0 297 l 0 496 l 496 496 l 496 297 l 0 297 m 149 546 l 149 744 l 347 744 l 347 546 l 149 546 z "},"þ":{"ha":595,"x_min":0,"x_max":496,"o":"m 297 198 l 297 694 l 198 694 l 198 198 l 297 198 m 0 -99 l 0 992 l 198 992 l 198 893 l 496 893 l 496 0 l 198 0 l 198 -99 l 0 -99 z "},"Œ":{"ha":893,"x_min":0,"x_max":793,"o":"m 397 198 l 397 893 l 198 893 l 198 198 l 397 198 m 0 0 l 0 1091 l 793 1091 l 793 893 l 595 893 l 595 694 l 793 694 l 793 496 l 595 496 l 595 198 l 793 198 l 793 0 l 0 0 z "},"œ":{"ha":893,"x_min":0,"x_max":793,"o":"m 297 198 l 297 694 l 198 694 l 198 198 l 297 198 m 595 496 l 595 694 l 496 694 l 496 496 l 595 496 m 0 0 l 0 893 l 793 893 l 793 297 l 496 297 l 496 198 l 793 198 l 793 0 l 0 0 z "},"—":{"ha":793,"x_min":0,"x_max":694,"o":"m 0 297 l 0 496 l 694 496 l 694 297 l 0 297 z "},"‘":{"ha":297,"x_min":0,"x_max":198,"o":"m 0 793 l 0 1091 l 198 1091 l 198 793 l 0 793 z "},"’":{"ha":297,"x_min":0,"x_max":198,"o":"m 0 793 l 0 1091 l 198 1091 l 198 793 l 0 793 z "},"‚":{"ha":297,"x_min":0,"x_max":198,"o":"m 0 -99 l 0 198 l 198 198 l 198 -99 l 0 -99 z "},"‛":{"ha":297,"x_min":0,"x_max":198,"o":"m 0 793 l 0 1091 l 198 1091 l 198 793 l 0 793 z "},"“":{"ha":595,"x_min":0,"x_max":496,"o":"m 0 793 l 0 1091 l 198 1091 l 198 793 l 0 793 m 297 793 l 297 1091 l 496 1091 l 496 793 l 297 793 z "},"”":{"ha":595,"x_min":0,"x_max":496,"o":"m 0 793 l 0 1091 l 198 1091 l 198 793 l 0 793 m 297 793 l 297 1091 l 496 1091 l 496 793 l 297 793 z "},"„":{"ha":595,"x_min":0,"x_max":496,"o":"m 0 -99 l 0 198 l 198 198 l 198 -99 l 0 -99 m 297 -99 l 297 198 l 496 198 l 496 -99 l 297 -99 z "},"†":{"ha":694,"x_min":0,"x_max":595,"o":"m 198 0 l 198 694 l 0 694 l 0 893 l 198 893 l 198 1091 l 397 1091 l 397 893 l 595 893 l 595 694 l 397 694 l 397 0 l 198 0 z "},"•":{"ha":397,"x_min":0,"x_max":297,"o":"m 0 297 l 0 595 l 297 595 l 297 297 l 0 297 z "},"…":{"ha":893,"x_min":0,"x_max":793,"o":"m 0 0 l 0 198 l 198 198 l 198 0 l 0 0 m 297 0 l 297 198 l 496 198 l 496 0 l 297 0 m 595 0 l 595 198 l 793 198 l 793 0 l 595 0 z "},"⁴":{"ha":595,"x_min":0,"x_max":496,"o":"m 297 297 l 297 595 l 0 595 l 0 1091 l 198 1091 l 198 793 l 297 793 l 297 1091 l 496 1091 l 496 297 l 297 297 z "},"€":{"ha":694,"x_min":0,"x_max":595,"o":"m 99 0 l 99 297 l 0 297 l 0 496 l 99 496 l 99 595 l 0 595 l 0 793 l 99 793 l 99 1091 l 595 1091 l 595 893 l 297 893 l 297 793 l 496 793 l 496 595 l 297 595 l 297 496 l 496 496 l 496 297 l 297 297 l 297 198 l 595 198 l 595 0 l 99 0 z "},"™":{"ha":1290,"x_min":0,"x_max":1190,"o":"m 99 595 l 99 893 l 0 893 l 0 1091 l 1190 1091 l 1190 595 l 992 595 l 992 893 l 893 893 l 893 595 l 694 595 l 694 893 l 595 893 l 595 595 l 397 595 l 397 893 l 297 893 l 297 595 l 99 595 z "},"*":{"ha":628,"x_min":0,"x_max":529,"o":"m 165 1009 l 165 1085 l 363 1085 l 363 1009 l 429 1047 l 529 876 l 463 838 l 529 799 l 429 628 l 363 666 l 363 590 l 165 590 l 165 666 l 99 628 l 0 799 l 66 838 l 0 876 l 99 1047 l 165 1009 z "},"/":{"ha":426,"x_min":0,"x_max":480,"o":"m 0 0 l 271 1091 l 480 1091 l 209 0 l 0 0 z "},"<":{"ha":595,"x_min":0,"x_max":496,"o":"m 0 397 l 0 595 l 496 866 l 496 668 l 0 397 m 0 595 l 496 324 l 496 125 l 0 397 l 0 595 z "},">":{"ha":555,"x_min":0,"x_max":496,"o":"m 496 397 l 0 668 l 0 866 l 496 595 l 496 397 m 496 595 l 496 397 l 0 125 l 0 324 l 496 595 z "},"\\":{"ha":426,"x_min":-54,"x_max":426,"o":"m 426 0 l 217 0 l -54 1091 l 154 1091 l 426 0 z "},"^":{"ha":705,"x_min":0,"x_max":605,"o":"m 203 1086 l 402 1086 l 605 590 l 407 590 l 203 1086 m 402 1086 l 198 590 l 0 590 l 203 1086 l 402 1086 z "},"`":{"ha":399,"x_min":0,"x_max":300,"o":"m 102 893 l 0 1091 l 198 1091 l 300 893 l 102 893 z "}," ":{"ha":555,"x_min":0,"x_max":0,"o":""},"«":{"ha":663,"x_min":0,"x_max":564,"o":"m 0 397 l 0 595 l 292 866 l 292 668 l 0 397 m 0 595 l 292 324 l 292 125 l 0 397 l 0 595 m 271 397 l 271 595 l 564 866 l 564 668 l 271 397 m 271 595 l 564 324 l 564 125 l 271 397 l 271 595 z "},"´":{"ha":399,"x_min":0,"x_max":300,"o":"m 198 893 l 0 893 l 102 1091 l 300 1091 l 198 893 z "},"»":{"ha":663,"x_min":0,"x_max":564,"o":"m 564 397 l 271 668 l 271 866 l 564 595 l 564 397 m 564 595 l 564 397 l 271 125 l 271 324 l 564 595 m 292 397 l 0 668 l 0 866 l 292 595 l 292 397 m 292 595 l 292 397 l 0 125 l 0 324 l 292 595 z "},"À":{"ha":595,"x_min":0,"x_max":496,"o":"m 297 595 l 297 893 l 198 893 l 198 595 l 297 595 m 0 0 l 0 1091 l 496 1091 l 496 0 l 297 0 l 297 397 l 198 397 l 198 0 l 0 0 m 150 1125 l 48 1323 l 246 1323 l 348 1125 l 150 1125 z "},"Á":{"ha":595,"x_min":0,"x_max":496,"o":"m 297 595 l 297 893 l 198 893 l 198 595 l 297 595 m 0 0 l 0 1091 l 496 1091 l 496 0 l 297 0 l 297 397 l 198 397 l 198 0 l 0 0 m 346 1125 l 148 1125 l 250 1323 l 448 1323 l 346 1125 z "},"Â":{"ha":595,"x_min":0,"x_max":496,"o":"m 297 595 l 297 893 l 198 893 l 198 595 l 297 595 m 0 0 l 0 1091 l 496 1091 l 496 0 l 297 0 l 297 397 l 198 397 l 198 0 l 0 0 m 366 1323 l 468 1125 l 270 1125 l 248 1167 l 227 1125 l 28 1125 l 130 1323 l 366 1323 z "},"Ã":{"ha":595,"x_min":-69,"x_max":565,"o":"m 297 595 l 297 893 l 198 893 l 198 595 l 297 595 m 0 0 l 0 1091 l 496 1091 l 496 0 l 297 0 l 297 397 l 198 397 l 198 0 l 0 0 m -69 1203 l 0 1368 l 117 1416 l 365 1312 l 400 1394 l 565 1325 l 495 1160 l 378 1112 l 131 1216 l 96 1134 l -69 1203 z "},"Ä":{"ha":595,"x_min":0,"x_max":496,"o":"m 297 595 l 297 893 l 198 893 l 198 595 l 297 595 m 0 0 l 0 1091 l 496 1091 l 496 0 l 297 0 l 297 397 l 198 397 l 198 0 l 0 0 m 0 1125 l 0 1323 l 198 1323 l 198 1125 l 0 1125 m 297 1125 l 297 1323 l 496 1323 l 496 1125 l 297 1125 z "},"Å":{"ha":595,"x_min":0,"x_max":496,"o":"m 297 595 l 297 893 l 198 893 l 198 595 l 297 595 m 0 0 l 0 1091 l 496 1091 l 496 0 l 297 0 l 297 397 l 198 397 l 198 0 l 0 0 m 297 1090 l 297 1190 l 198 1190 l 198 1090 l 297 1090 m 0 892 l 0 1388 l 496 1388 l 496 892 l 0 892 z "},"Ç":{"ha":595,"x_min":0,"x_max":496,"o":"m 0 0 l 0 1091 l 496 1091 l 496 694 l 297 694 l 297 893 l 198 893 l 198 198 l 297 198 l 297 397 l 496 397 l 496 0 l 0 0 m 55 -297 l 55 -99 l 154 -99 l 154 0 l 353 0 l 353 -198 l 254 -297 l 55 -297 z "},"È":{"ha":496,"x_min":-2,"x_max":397,"o":"m 0 0 l 0 1091 l 397 1091 l 397 893 l 198 893 l 198 694 l 397 694 l 397 496 l 198 496 l 198 198 l 397 198 l 397 0 l 0 0 m 100 1125 l -2 1323 l 197 1323 l 298 1125 l 100 1125 z "},"É":{"ha":496,"x_min":0,"x_max":398,"o":"m 0 0 l 0 1091 l 397 1091 l 397 893 l 198 893 l 198 694 l 397 694 l 397 496 l 198 496 l 198 198 l 397 198 l 397 0 l 0 0 m 297 1125 l 98 1125 l 200 1323 l 398 1323 l 297 1125 z "},"Ê":{"ha":496,"x_min":-21,"x_max":418,"o":"m 0 0 l 0 1091 l 397 1091 l 397 893 l 198 893 l 198 694 l 397 694 l 397 496 l 198 496 l 198 198 l 397 198 l 397 0 l 0 0 m 317 1323 l 418 1125 l 220 1125 l 199 1167 l 177 1125 l -21 1125 l 80 1323 l 317 1323 z "},"Ë":{"ha":496,"x_min":-50,"x_max":446,"o":"m 0 0 l 0 1091 l 397 1091 l 397 893 l 198 893 l 198 694 l 397 694 l 397 496 l 198 496 l 198 198 l 397 198 l 397 0 l 0 0 m -50 1125 l -50 1323 l 149 1323 l 149 1125 l -50 1125 m 248 1125 l 248 1323 l 446 1323 l 446 1125 l 248 1125 z "},"Ì":{"ha":297,"x_min":-101,"x_max":199,"o":"m 0 0 l 0 1091 l 198 1091 l 198 0 l 0 0 m 1 1125 l -101 1323 l 98 1323 l 199 1125 l 1 1125 z "},"Í":{"ha":297,"x_min":-1,"x_max":299,"o":"m 0 0 l 0 1091 l 198 1091 l 198 0 l 0 0 m 198 1125 l -1 1125 l 101 1323 l 299 1323 l 198 1125 z "},"Î":{"ha":297,"x_min":-121,"x_max":319,"o":"m 0 0 l 0 1091 l 198 1091 l 198 0 l 0 0 m 217 1323 l 319 1125 l 121 1125 l 99 1167 l 78 1125 l -121 1125 l -19 1323 l 217 1323 z "},"Ï":{"ha":297,"x_min":-149,"x_max":347,"o":"m 0 0 l 0 1091 l 198 1091 l 198 0 l 0 0 m -149 1125 l -149 1323 l 50 1323 l 50 1125 l -149 1125 m 149 1125 l 149 1323 l 347 1323 l 347 1125 l 149 1125 z "},"Ð":{"ha":663,"x_min":0,"x_max":564,"o":"m 365 198 l 365 893 l 266 893 l 266 198 l 365 198 m 68 0 l 68 1091 l 465 1091 l 564 992 l 564 99 l 465 0 l 68 0 m 0 433 l 0 631 l 326 631 l 326 433 l 0 433 z "},"Ñ":{"ha":595,"x_min":-69,"x_max":565,"o":"m 0 0 l 0 1091 l 496 1091 l 496 0 l 297 0 l 297 893 l 198 893 l 198 0 l 0 0 m -69 1203 l 0 1368 l 117 1416 l 365 1312 l 400 1394 l 565 1325 l 495 1160 l 378 1112 l 131 1216 l 96 1134 l -69 1203 z "},"Ò":{"ha":595,"x_min":0,"x_max":496,"o":"m 297 198 l 297 893 l 198 893 l 198 198 l 297 198 m 0 0 l 0 1091 l 496 1091 l 496 0 l 0 0 m 150 1125 l 48 1323 l 246 1323 l 348 1125 l 150 1125 z "},"Ó":{"ha":595,"x_min":0,"x_max":496,"o":"m 297 198 l 297 893 l 198 893 l 198 198 l 297 198 m 0 0 l 0 1091 l 496 1091 l 496 0 l 0 0 m 346 1125 l 148 1125 l 250 1323 l 448 1323 l 346 1125 z "},"Ô":{"ha":595,"x_min":0,"x_max":496,"o":"m 297 198 l 297 893 l 198 893 l 198 198 l 297 198 m 0 0 l 0 1091 l 496 1091 l 496 0 l 0 0 m 366 1323 l 468 1125 l 270 1125 l 248 1167 l 227 1125 l 28 1125 l 130 1323 l 366 1323 z "},"Õ":{"ha":595,"x_min":-69,"x_max":565,"o":"m 297 198 l 297 893 l 198 893 l 198 198 l 297 198 m 0 0 l 0 1091 l 496 1091 l 496 0 l 0 0 m -69 1203 l 0 1368 l 117 1416 l 365 1312 l 400 1394 l 565 1325 l 495 1160 l 378 1112 l 131 1216 l 96 1134 l -69 1203 z "},"Ö":{"ha":595,"x_min":0,"x_max":496,"o":"m 297 198 l 297 893 l 198 893 l 198 198 l 297 198 m 0 0 l 0 1091 l 496 1091 l 496 0 l 0 0 m 0 1125 l 0 1323 l 198 1323 l 198 1125 l 0 1125 m 297 1125 l 297 1323 l 496 1323 l 496 1125 l 297 1125 z "},"×":{"ha":661,"x_min":0,"x_max":562,"o":"m 281 256 l 140 116 l 0 256 l 140 397 l 0 537 l 140 677 l 281 537 l 421 677 l 562 537 l 421 397 l 562 256 l 421 116 l 281 256 z "},"Ø":{"ha":595,"x_min":0,"x_max":496,"o":"m 297 198 l 297 893 l 198 893 l 198 198 l 297 198 m 0 0 l 0 1091 l 496 1091 l 496 0 l 0 0 m 429 527 l 154 368 l 56 537 l 331 696 l 429 527 z "},"Ù":{"ha":595,"x_min":0,"x_max":496,"o":"m 0 0 l 0 1091 l 198 1091 l 198 198 l 297 198 l 297 1091 l 496 1091 l 496 0 l 0 0 m 150 1125 l 48 1323 l 246 1323 l 348 1125 l 150 1125 z "},"Ú":{"ha":595,"x_min":0,"x_max":496,"o":"m 0 0 l 0 1091 l 198 1091 l 198 198 l 297 198 l 297 1091 l 496 1091 l 496 0 l 0 0 m 346 1125 l 148 1125 l 250 1323 l 448 1323 l 346 1125 z "},"Û":{"ha":595,"x_min":0,"x_max":496,"o":"m 0 0 l 0 1091 l 198 1091 l 198 198 l 297 198 l 297 1091 l 496 1091 l 496 0 l 0 0 m 366 1323 l 468 1125 l 270 1125 l 248 1167 l 227 1125 l 28 1125 l 130 1323 l 366 1323 z "},"Ü":{"ha":595,"x_min":0,"x_max":496,"o":"m 0 0 l 0 1091 l 198 1091 l 198 198 l 297 198 l 297 1091 l 496 1091 l 496 0 l 0 0 m 0 1125 l 0 1323 l 198 1323 l 198 1125 l 0 1125 m 297 1125 l 297 1323 l 496 1323 l 496 1125 l 297 1125 z "},"Ý":{"ha":595,"x_min":0,"x_max":496,"o":"m 149 0 l 149 496 l 0 496 l 0 1091 l 198 1091 l 198 694 l 297 694 l 297 1091 l 496 1091 l 496 496 l 347 496 l 347 0 l 149 0 m 346 1125 l 148 1125 l 250 1323 l 448 1323 l 346 1125 z "},"à":{"ha":595,"x_min":0,"x_max":496,"o":"m 297 198 l 297 397 l 198 397 l 198 198 l 297 198 m 0 0 l 0 595 l 297 595 l 297 694 l 0 694 l 0 893 l 496 893 l 496 0 l 0 0 m 150 927 l 48 1125 l 246 1125 l 348 927 l 150 927 z "},"á":{"ha":595,"x_min":0,"x_max":496,"o":"m 297 198 l 297 397 l 198 397 l 198 198 l 297 198 m 0 0 l 0 595 l 297 595 l 297 694 l 0 694 l 0 893 l 496 893 l 496 0 l 0 0 m 346 927 l 148 927 l 250 1125 l 448 1125 l 346 927 z "},"â":{"ha":595,"x_min":0,"x_max":496,"o":"m 297 198 l 297 397 l 198 397 l 198 198 l 297 198 m 0 0 l 0 595 l 297 595 l 297 694 l 0 694 l 0 893 l 496 893 l 496 0 l 0 0 m 366 1125 l 468 927 l 270 927 l 248 969 l 227 927 l 28 927 l 130 1125 l 366 1125 z "},"ã":{"ha":595,"x_min":-69,"x_max":565,"o":"m 297 198 l 297 397 l 198 397 l 198 198 l 297 198 m 0 0 l 0 595 l 297 595 l 297 694 l 0 694 l 0 893 l 496 893 l 496 0 l 0 0 m -69 1005 l 0 1170 l 117 1218 l 365 1113 l 400 1196 l 565 1126 l 495 961 l 378 914 l 131 1018 l 96 935 l -69 1005 z "},"ä":{"ha":595,"x_min":0,"x_max":496,"o":"m 297 198 l 297 397 l 198 397 l 198 198 l 297 198 m 0 0 l 0 595 l 297 595 l 297 694 l 0 694 l 0 893 l 496 893 l 496 0 l 0 0 m 0 927 l 0 1125 l 198 1125 l 198 927 l 0 927 m 297 927 l 297 1125 l 496 1125 l 496 927 l 297 927 z "},"å":{"ha":595,"x_min":0,"x_max":496,"o":"m 297 198 l 297 397 l 198 397 l 198 198 l 297 198 m 0 0 l 0 595 l 297 595 l 297 694 l 0 694 l 0 893 l 496 893 l 496 0 l 0 0 m 297 892 l 297 991 l 198 991 l 198 892 l 297 892 m 0 693 l 0 1190 l 496 1190 l 496 693 l 0 693 z "},"ç":{"ha":595,"x_min":0,"x_max":496,"o":"m 0 0 l 0 893 l 496 893 l 496 595 l 297 595 l 297 694 l 198 694 l 198 198 l 297 198 l 297 297 l 496 297 l 496 0 l 0 0 m 55 -297 l 55 -99 l 154 -99 l 154 0 l 353 0 l 353 -198 l 254 -297 l 55 -297 z "},"è":{"ha":595,"x_min":0,"x_max":496,"o":"m 297 496 l 297 694 l 198 694 l 198 496 l 297 496 m 0 0 l 0 893 l 496 893 l 496 297 l 198 297 l 198 198 l 496 198 l 496 0 l 0 0 m 150 927 l 48 1125 l 246 1125 l 348 927 l 150 927 z "},"é":{"ha":595,"x_min":0,"x_max":496,"o":"m 297 496 l 297 694 l 198 694 l 198 496 l 297 496 m 0 0 l 0 893 l 496 893 l 496 297 l 198 297 l 198 198 l 496 198 l 496 0 l 0 0 m 346 927 l 148 927 l 250 1125 l 448 1125 l 346 927 z "},"ê":{"ha":595,"x_min":0,"x_max":496,"o":"m 297 496 l 297 694 l 198 694 l 198 496 l 297 496 m 0 0 l 0 893 l 496 893 l 496 297 l 198 297 l 198 198 l 496 198 l 496 0 l 0 0 m 366 1125 l 468 927 l 270 927 l 248 969 l 227 927 l 28 927 l 130 1125 l 366 1125 z "},"ë":{"ha":595,"x_min":0,"x_max":496,"o":"m 297 496 l 297 694 l 198 694 l 198 496 l 297 496 m 0 0 l 0 893 l 496 893 l 496 297 l 198 297 l 198 198 l 496 198 l 496 0 l 0 0 m 0 927 l 0 1125 l 198 1125 l 198 927 l 0 927 m 297 927 l 297 1125 l 496 1125 l 496 927 l 297 927 z "},"ì":{"ha":297,"x_min":-101,"x_max":199,"o":"m 0 0 l 0 893 l 198 893 l 198 0 l 0 0 m 1 927 l -101 1125 l 98 1125 l 199 927 l 1 927 z "},"í":{"ha":297,"x_min":-1,"x_max":299,"o":"m 0 0 l 0 893 l 198 893 l 198 0 l 0 0 m 198 927 l -1 927 l 101 1125 l 299 1125 l 198 927 z "},"î":{"ha":297,"x_min":-121,"x_max":319,"o":"m 0 0 l 0 893 l 198 893 l 198 0 l 0 0 m 217 1125 l 319 927 l 121 927 l 99 969 l 78 927 l -121 927 l -19 1125 l 217 1125 z "},"ï":{"ha":297,"x_min":-149,"x_max":347,"o":"m 0 0 l 0 893 l 198 893 l 198 0 l 0 0 m -149 927 l -149 1125 l 50 1125 l 50 927 l -149 927 m 149 927 l 149 1125 l 347 1125 l 347 927 l 149 927 z "},"ñ":{"ha":595,"x_min":-69,"x_max":565,"o":"m 0 0 l 0 893 l 496 893 l 496 0 l 297 0 l 297 694 l 198 694 l 198 0 l 0 0 m -69 1005 l 0 1170 l 117 1218 l 365 1113 l 400 1196 l 565 1126 l 495 961 l 378 914 l 131 1018 l 96 935 l -69 1005 z "},"ò":{"ha":595,"x_min":0,"x_max":496,"o":"m 297 198 l 297 694 l 198 694 l 198 198 l 297 198 m 0 0 l 0 893 l 496 893 l 496 0 l 0 0 m 150 927 l 48 1125 l 246 1125 l 348 927 l 150 927 z "},"ó":{"ha":595,"x_min":0,"x_max":496,"o":"m 297 198 l 297 694 l 198 694 l 198 198 l 297 198 m 0 0 l 0 893 l 496 893 l 496 0 l 0 0 m 346 927 l 148 927 l 250 1125 l 448 1125 l 346 927 z "},"ô":{"ha":595,"x_min":0,"x_max":496,"o":"m 297 198 l 297 694 l 198 694 l 198 198 l 297 198 m 0 0 l 0 893 l 496 893 l 496 0 l 0 0 m 366 1125 l 468 927 l 270 927 l 248 969 l 227 927 l 28 927 l 130 1125 l 366 1125 z "},"õ":{"ha":595,"x_min":-69,"x_max":565,"o":"m 297 198 l 297 694 l 198 694 l 198 198 l 297 198 m 0 0 l 0 893 l 496 893 l 496 0 l 0 0 m -69 1005 l 0 1170 l 117 1218 l 365 1113 l 400 1196 l 565 1126 l 495 961 l 378 914 l 131 1018 l 96 935 l -69 1005 z "},"ö":{"ha":595,"x_min":0,"x_max":496,"o":"m 297 198 l 297 694 l 198 694 l 198 198 l 297 198 m 0 0 l 0 893 l 496 893 l 496 0 l 0 0 m 0 927 l 0 1125 l 198 1125 l 198 927 l 0 927 m 297 927 l 297 1125 l 496 1125 l 496 927 l 297 927 z "},"ø":{"ha":595,"x_min":0,"x_max":496,"o":"m 297 198 l 297 694 l 198 694 l 198 198 l 297 198 m 0 0 l 0 893 l 496 893 l 496 0 l 0 0 m 435 436 l 160 277 l 63 447 l 338 605 l 435 436 z "},"ù":{"ha":595,"x_min":0,"x_max":496,"o":"m 0 0 l 0 893 l 198 893 l 198 198 l 297 198 l 297 893 l 496 893 l 496 0 l 0 0 m 150 927 l 48 1125 l 246 1125 l 348 927 l 150 927 z "},"ú":{"ha":595,"x_min":0,"x_max":496,"o":"m 0 0 l 0 893 l 198 893 l 198 198 l 297 198 l 297 893 l 496 893 l 496 0 l 0 0 m 346 927 l 148 927 l 250 1125 l 448 1125 l 346 927 z "},"û":{"ha":595,"x_min":0,"x_max":496,"o":"m 0 0 l 0 893 l 198 893 l 198 198 l 297 198 l 297 893 l 496 893 l 496 0 l 0 0 m 366 1125 l 468 927 l 270 927 l 248 969 l 227 927 l 28 927 l 130 1125 l 366 1125 z "},"ü":{"ha":595,"x_min":0,"x_max":496,"o":"m 0 0 l 0 893 l 198 893 l 198 198 l 297 198 l 297 893 l 496 893 l 496 0 l 0 0 m 0 927 l 0 1125 l 198 1125 l 198 927 l 0 927 m 297 927 l 297 1125 l 496 1125 l 496 927 l 297 927 z "},"ý":{"ha":595,"x_min":0,"x_max":496,"o":"m 0 -297 l 0 -99 l 297 -99 l 297 0 l 0 0 l 0 893 l 198 893 l 198 198 l 297 198 l 297 893 l 496 893 l 496 -297 l 0 -297 m 346 927 l 148 927 l 250 1125 l 448 1125 l 346 927 z "},"ÿ":{"ha":595,"x_min":0,"x_max":496,"o":"m 0 -297 l 0 -99 l 297 -99 l 297 0 l 0 0 l 0 893 l 198 893 l 198 198 l 297 198 l 297 893 l 496 893 l 496 -297 l 0 -297 m 0 927 l 0 1125 l 198 1125 l 198 927 l 0 927 m 297 927 l 297 1125 l 496 1125 l 496 927 l 297 927 z "},"ˆ":{"ha":539,"x_min":0,"x_max":440,"o":"m 338 1091 l 440 893 l 241 893 l 220 935 l 198 893 l 0 893 l 102 1091 l 338 1091 z "},"˚":{"ha":595,"x_min":0,"x_max":496,"o":"m 297 793 l 297 893 l 198 893 l 198 793 l 297 793 m 0 595 l 0 1091 l 496 1091 l 496 595 l 0 595 z "},"˜":{"ha":733,"x_min":0,"x_max":634,"o":"m 0 971 l 70 1136 l 186 1184 l 434 1079 l 469 1162 l 634 1093 l 564 927 l 447 880 l 200 984 l 165 901 l 0 971 z "},"ı":{"ha":297,"x_min":0,"x_max":198,"o":"m 0 0 l 0 893 l 198 893 l 198 0 l 0 0 z "}}}
